<svg width="28" height="28" viewBox="0 0 28 28" fill="none" xmlns="http://www.w3.org/2000/svg">
<path fill-rule="evenodd" clip-rule="evenodd" d="M8.70925 1.2435C10.0777 1.1805 10.5141 1.1665 14.0001 1.1665C17.4861 1.1665 17.9224 1.18167 19.2897 1.2435C20.6571 1.30534 21.5904 1.5235 22.4071 1.83967C23.2622 2.16284 24.0381 2.668 24.6797 3.32134C25.3331 3.96184 25.8371 4.7365 26.1591 5.59284C26.4764 6.4095 26.6934 7.34284 26.7564 8.70784C26.8194 10.0787 26.8334 10.515 26.8334 13.9998C26.8334 17.4858 26.8182 17.9222 26.7564 19.2907C26.6946 20.6557 26.4764 21.589 26.1591 22.4057C25.8371 23.2621 25.3322 24.0381 24.6797 24.6795C24.0381 25.3328 23.2622 25.8368 22.4071 26.1588C21.5904 26.4762 20.6571 26.6932 19.2921 26.7562C17.9224 26.8192 17.4861 26.8332 14.0001 26.8332C10.5141 26.8332 10.0777 26.818 8.70925 26.7562C7.34425 26.6943 6.41092 26.4762 5.59425 26.1588C4.73782 25.8368 3.96187 25.332 3.32041 24.6795C2.66752 24.0386 2.16228 23.263 1.83991 22.4068C1.52375 21.5902 1.30675 20.6568 1.24375 19.2918C1.18075 17.921 1.16675 17.4847 1.16675 13.9998C1.16675 10.5138 1.18191 10.0775 1.24375 8.71017C1.30558 7.34284 1.52375 6.4095 1.83991 5.59284C2.16276 4.7366 2.66839 3.96104 3.32158 3.32017C3.96213 2.66742 4.7373 2.16219 5.59308 1.83967C6.40975 1.5235 7.34308 1.3065 8.70808 1.2435H8.70925ZM19.1859 3.5535C17.8326 3.49167 17.4266 3.47884 14.0001 3.47884C10.5736 3.47884 10.1676 3.49167 8.81425 3.5535C7.56242 3.61067 6.88342 3.8195 6.43075 3.99567C5.83225 4.229 5.40408 4.5055 4.95492 4.95467C4.52913 5.3689 4.20146 5.87317 3.99591 6.4305C3.81975 6.88317 3.61091 7.56217 3.55375 8.814C3.49191 10.1673 3.47908 10.5733 3.47908 13.9998C3.47908 17.4263 3.49191 17.8323 3.55375 19.1857C3.61091 20.4375 3.81975 21.1165 3.99591 21.5692C4.20125 22.1257 4.52908 22.6308 4.95492 23.045C5.36908 23.4708 5.87425 23.7987 6.43075 24.004C6.88342 24.1802 7.56242 24.389 8.81425 24.4462C10.1676 24.508 10.5724 24.5208 14.0001 24.5208C17.4277 24.5208 17.8326 24.508 19.1859 24.4462C20.4377 24.389 21.1168 24.1802 21.5694 24.004C22.1679 23.7707 22.5961 23.4942 23.0452 23.045C23.4711 22.6308 23.7989 22.1257 24.0043 21.5692C24.1804 21.1165 24.3893 20.4375 24.4464 19.1857C24.5083 17.8323 24.5211 17.4263 24.5211 13.9998C24.5211 10.5733 24.5083 10.1673 24.4464 8.814C24.3893 7.56217 24.1804 6.88317 24.0043 6.4305C23.7709 5.832 23.4944 5.40384 23.0452 4.95467C22.631 4.52892 22.1267 4.20125 21.5694 3.99567C21.1168 3.8195 20.4377 3.61067 19.1859 3.5535V3.5535ZM12.3609 17.956C13.2764 18.3371 14.2957 18.3885 15.2448 18.1015C16.194 17.8145 17.014 17.2069 17.565 16.3825C18.1159 15.558 18.3635 14.5679 18.2655 13.5811C18.1675 12.5944 17.7299 11.6723 17.0276 10.9723C16.5799 10.5249 16.0385 10.1823 15.4425 9.96918C14.8464 9.75607 14.2106 9.67776 13.5807 9.73989C12.9507 9.80202 12.3424 10.003 11.7995 10.3285C11.2566 10.6539 10.7926 11.0957 10.4409 11.622C10.0893 12.1483 9.85864 12.746 9.76568 13.3721C9.67273 13.9982 9.71976 14.6372 9.90338 15.2429C10.087 15.8487 10.4026 16.4062 10.8276 16.8753C11.2525 17.3445 11.7762 17.7136 12.3609 17.956ZM9.33575 9.3355C9.94828 8.72298 10.6755 8.23709 11.4758 7.90559C12.2761 7.57409 13.1338 7.40347 14.0001 7.40347C14.8663 7.40347 15.7241 7.57409 16.5244 7.90559C17.3247 8.23709 18.0519 8.72298 18.6644 9.3355C19.2769 9.94803 19.7628 10.6752 20.0943 11.4755C20.4258 12.2758 20.5964 13.1336 20.5964 13.9998C20.5964 14.8661 20.4258 15.7238 20.0943 16.5242C19.7628 17.3245 19.2769 18.0516 18.6644 18.6642C17.4274 19.9012 15.7495 20.5962 14.0001 20.5962C12.2506 20.5962 10.5728 19.9012 9.33575 18.6642C8.09869 17.4271 7.40372 15.7493 7.40372 13.9998C7.40372 12.2504 8.09869 10.5726 9.33575 9.3355V9.3355ZM22.0594 8.38584C22.2112 8.24265 22.3327 8.07047 22.4168 7.87947C22.5008 7.68848 22.5457 7.48257 22.5487 7.27392C22.5518 7.06528 22.5129 6.85814 22.4345 6.66478C22.356 6.47142 22.2396 6.29577 22.092 6.14822C21.9445 6.00067 21.7688 5.88422 21.5755 5.80577C21.3821 5.72733 21.175 5.68848 20.9663 5.69152C20.7577 5.69456 20.5518 5.73943 20.3608 5.82348C20.1698 5.90753 19.9976 6.02905 19.8544 6.18084C19.5759 6.47604 19.4235 6.86815 19.4294 7.27392C19.4353 7.6797 19.5991 8.0672 19.8861 8.35415C20.1731 8.64111 20.5606 8.80494 20.9663 8.81085C21.3721 8.81677 21.7642 8.66431 22.0594 8.38584V8.38584Z" fill="#FFFCF6"/>
</svg>
