<svg width="28" height="28" viewBox="0 0 28 28" fill="none" xmlns="http://www.w3.org/2000/svg">
<path d="M13.1473 2.23159C13.3735 2.08059 13.6393 2 13.9113 2C14.1832 2 14.4491 2.08059 14.6753 2.23159C15.8533 2.97243 16.9836 3.78671 18.0593 4.66959C18.0593 4.66959 18.3523 4.87259 18.3603 4.52959C18.3314 4.08503 18.3579 3.63859 18.4393 3.20059C18.4828 3.08654 18.5597 2.9883 18.66 2.91871C18.7603 2.84912 18.8792 2.81143 19.0013 2.81059C19.0013 2.81059 20.3303 2.87659 21.1743 2.98959C21.5513 3.03959 21.8453 3.34159 21.8853 3.71959C21.8853 3.71959 22.4283 7.33959 22.5503 8.64459C22.5503 8.64459 22.6553 9.30859 23.6173 10.4346C23.6173 10.4346 25.5703 13.1696 25.7973 13.6936C25.7973 13.6936 26.2513 14.6396 25.2743 14.7676C25.2743 14.7676 23.4913 14.9476 23.3193 14.9876C23.2041 15.0017 23.0989 15.0601 23.0261 15.1505C22.9533 15.2408 22.9185 15.356 22.9293 15.4716C22.9293 15.4716 22.8353 21.7676 22.3743 24.7916C22.3743 24.7916 22.2533 25.9916 21.5923 25.9646C21.5923 25.9646 19.7593 25.9056 19.3333 25.9176C19.3333 25.9176 19.1503 25.9176 19.1773 25.6716C19.1773 25.6716 20.1113 15.8546 19.4783 10.8916C19.4783 10.8916 19.4503 10.2516 18.9623 10.1096C18.9623 10.1096 18.5173 9.92959 18.0913 10.5006C16.2426 13.0885 15.2306 16.1804 15.1913 19.3606C15.1913 19.3606 15.1413 20.9236 15.3793 21.3136C15.3793 21.3136 15.5273 21.5876 16.2863 21.6496L17.2463 21.7796C17.2463 21.7796 17.4223 21.7796 17.4063 22.0126C17.4063 22.0126 17.1883 24.8926 17.1263 25.4056C17.1223 25.5222 17.0983 25.6372 17.0553 25.7456C17.0553 25.7456 17.0203 25.8436 16.7193 25.8316C16.7193 25.8316 12.4833 25.8016 12.0063 25.8316C12.0063 25.8316 11.8063 25.8316 11.7643 25.7266C11.7213 25.6206 11.4703 22.0096 11.4783 21.4976C11.4747 21.4457 11.487 21.3939 11.5136 21.3492C11.5402 21.3046 11.5799 21.2691 11.6273 21.2476C11.9504 21.0436 12.2236 20.7695 12.4265 20.4456C12.6293 20.1217 12.7567 19.7564 12.7993 19.3766C12.8513 18.8286 12.8593 18.2786 12.8233 17.7306C12.8233 17.7306 12.9793 12.2086 13.0183 11.3206C13.0183 11.3206 13.0493 11.0206 12.6583 10.9656C12.5645 10.9437 12.4659 10.9598 12.384 11.0104C12.3021 11.061 12.2436 11.1419 12.2213 11.2356V11.2656C12.2213 11.2976 11.9473 14.9086 11.9983 16.3466C11.9983 16.3466 12.0923 17.2886 11.4403 17.3076C11.4403 17.3076 10.8063 17.4026 10.7753 16.6176C10.7753 16.6176 10.8223 13.0756 10.9783 11.3256C10.9791 11.2289 10.9439 11.1353 10.8796 11.063C10.8153 10.9908 10.7264 10.945 10.6303 10.9346C10.5308 10.9208 10.4298 10.946 10.3484 11.0049C10.267 11.0638 10.2114 11.1518 10.1933 11.2506C10.1908 11.2608 10.1908 11.2714 10.1933 11.2816C10.1933 11.2816 9.91928 14.6716 9.97028 16.4606C9.97028 16.4606 10.0483 17.3286 9.35628 17.2966C9.35628 17.2966 8.77828 17.3626 8.74628 16.5926C8.74628 16.5926 8.90328 11.7426 8.94628 11.3686C8.94181 11.2757 8.90427 11.1875 8.84046 11.1198C8.77665 11.0521 8.69076 11.0095 8.59828 10.9996H8.55928C8.46155 10.9915 8.36433 11.0204 8.2869 11.0806C8.20948 11.1408 8.1575 11.2279 8.14128 11.3246C8.14006 11.3362 8.14006 11.348 8.14128 11.3596C8.14128 11.3596 7.88328 17.1596 7.91828 18.8626C7.91828 18.8626 7.89528 20.6136 9.18828 21.3246C9.18828 21.3246 9.38028 21.4346 9.38428 21.6016C9.38428 21.6016 9.52928 24.6776 9.66128 25.6706C9.66128 25.6706 9.70828 25.9086 9.49728 25.9086L6.24228 25.9996C6.07168 25.9986 5.90789 25.9325 5.78432 25.8149C5.66075 25.6973 5.5867 25.5369 5.57728 25.3666C5.15557 22.1076 4.95478 18.8237 4.97628 15.5376C4.98765 15.4161 4.95416 15.2946 4.88214 15.196C4.81011 15.0975 4.70453 15.0287 4.58528 15.0026C4.58528 15.0026 2.92028 14.8496 2.51728 14.7486C2.41379 14.7216 2.31796 14.671 2.23733 14.6007C2.1567 14.5304 2.09346 14.4424 2.05257 14.3436C2.01167 14.2447 1.99425 14.1378 2.00166 14.0311C2.00908 13.9244 2.04112 13.8208 2.09528 13.7286C4.80027 9.06227 8.59207 5.11816 13.1483 2.23159H13.1473Z" fill="#3C2D27"/>
</svg>
