<svg width="30" height="30" viewBox="0 0 30 30" fill="none" xmlns="http://www.w3.org/2000/svg">
<path d="M29.5 15C29.5 23.0081 23.0081 29.5 15 29.5C6.99187 29.5 0.5 23.0081 0.5 15C0.5 6.99187 6.99187 0.5 15 0.5C23.0081 0.5 29.5 6.99187 29.5 15Z" fill="#FFFCF6" stroke="#253140"/>
<path d="M23.2733 7.64421C18.975 8.18517 16.7053 10.2667 15.3176 12.8598C15.6102 13.9995 15.7174 15.1788 15.6351 16.3526C15.6351 16.3526 14.9883 11.4839 11.6249 8.39685C8.4438 5.88019 6.46811 6.20948 6.46811 6.20948C6.46811 6.20948 -0.152827 18.634 15.5822 25.3784C15.5822 25.3784 21.0153 22.3326 23.0146 17.3639C25.3489 11.331 23.2733 7.64421 23.2733 7.64421Z" fill="#253140"/>
<path d="M15.5586 21.715L21.1623 10.9369L15.5821 25.3783L7.92041 8.74951L15.5586 21.715Z" fill="#FFFCF6"/>
</svg>
