<svg width="30" height="30" viewBox="0 0 30 30" fill="none" xmlns="http://www.w3.org/2000/svg">
<path d="M15 30C23.2843 30 30 23.2843 30 15C30 6.71573 23.2843 0 15 0C6.71573 0 0 6.71573 0 15C0 23.2843 6.71573 30 15 30Z" fill="#1A2F45"/>
<path d="M23.2733 7.64421C18.975 8.18517 16.7053 10.2667 15.3176 12.8598C15.6102 13.9995 15.7174 15.1788 15.6351 16.3526C15.6351 16.3526 14.9883 11.4839 11.6249 8.39685C8.4438 5.88019 6.46811 6.20948 6.46811 6.20948C6.46811 6.20948 -0.152827 18.634 15.5822 25.3784C15.5822 25.3784 21.0153 22.3326 23.0146 17.3639C25.3489 11.331 23.2733 7.64421 23.2733 7.64421Z" fill="#FFFCF6"/>
<path d="M15.5586 21.7145L21.1623 10.9364L15.5821 25.3778L7.92041 8.74902L15.5586 21.7145Z" fill="#1A2F45"/>
</svg>
